<?xml version="1.0" encoding="utf-8"?>
<!-- Generator: Adobe Illustrator 20.1.0, SVG Export Plug-In . SVG Version: 6.00 Build 0)  -->
<svg version="1.1" id="Laag_1" xmlns="http://www.w3.org/2000/svg" xmlns:xlink="http://www.w3.org/1999/xlink" x="0px" y="0px"
	 viewBox="0 0 60 60" style="enable-background:new 0 0 60 60;" xml:space="preserve">
<style type="text/css">
	.st0{fill:none;stroke:#666666;stroke-width:2;stroke-miterlimit:10;}
</style>
<path class="st0" d="M21.3,49.3h18.4c0,0,0.3,7.7-9.2,7.7C30.5,57,21.3,57,21.3,49.3z"/>
<g>
	<path class="st0" d="M23.5,3.7C12.3,6.2,10.9,15.9,10.9,15.9c-0.2,1.5-0.4,4.1-0.4,5.6v13.4c0,1.6-0.8,3.8-1.8,5l-3.3,3.9
		c-1,1.2-1.8,2.8-1.8,3.6c0,0.8,1.3,1.4,2.8,1.4h48.2c1.6,0,2.9-0.9,2.9-1.9c0-1-0.8-2.8-1.9-4l-3.7-4.1c-1.1-1.1-1.9-3.4-1.9-4.9
		V21.5c0-1.6-0.1-4.1-0.2-5.7c0,0-0.8-12.6-19-12.6C30.7,3.2,25.5,3.3,23.5,3.7z"/>
</g>
</svg>
