<svg id="Laag_1" data-name="Laag 1" xmlns="http://www.w3.org/2000/svg" viewBox="0 0 60 60"><defs><style>.cls-1{fill:silver;}</style></defs><title>Tekengebied 1</title><g id="Icon-Heart"><path id="Fill-18" class="cls-1" d="M30.38,53.81,29.45,53C8.26,35.77,2.56,29.72,2.56,19.83A14.68,14.68,0,0,1,17.23,5.16C24,5.16,27.82,9,30.38,11.91,32.94,9,36.78,5.16,43.53,5.16A14.68,14.68,0,0,1,58.2,19.83c0,9.89-5.7,15.95-26.89,33.17l-.93.81ZM17.23,8.19A11.67,11.67,0,0,0,5.59,19.83c0,8.5,5.35,14.08,24.79,30,19.44-15.95,24.79-21.53,24.79-30A11.67,11.67,0,0,0,43.53,8.19c-5.82,0-9,3.49-11.41,6.29l-1.75,2-1.75-2C26.19,11.68,23,8.19,17.23,8.19Z"/></g></svg>