<?xml version="1.0" encoding="utf-8"?>
<!-- Generator: Adobe Illustrator 20.1.0, SVG Export Plug-In . SVG Version: 6.00 Build 0)  -->
<svg version="1.1" id="Laag_1" xmlns="http://www.w3.org/2000/svg" xmlns:xlink="http://www.w3.org/1999/xlink" x="0px" y="0px"
	 viewBox="0 0 60 60" style="enable-background:new 0 0 60 60;" xml:space="preserve">
<style type="text/css">
	.st0{fill:#666666;stroke:#666666;stroke-width:3;stroke-linecap:round;stroke-linejoin:round;stroke-miterlimit:10;}
</style>
<title>Tekengebied 1</title>
<g id="Icon-Heart">
	<path id="Fill-18" class="st0" d="M30.4,52.8l-0.9-0.7C9.9,36.1,4.7,30.6,4.7,21.4c0-7.5,6.1-13.5,13.5-13.5
		c6.3,0,9.8,3.5,12.1,6.2c2.4-2.7,5.9-6.2,12.1-6.2c7.5,0,13.5,6.1,13.5,13.5c0,9.1-5.3,14.7-24.8,30.6
		C31.2,52.1,30.4,52.8,30.4,52.8z M18.2,10.7c-5.9,0-10.7,4.8-10.8,10.8c0,7.9,4.9,13,22.9,27.7c18-14.7,22.9-19.9,22.9-27.7
		c0-5.9-4.8-10.7-10.8-10.8c-5.4,0-8.3,3.2-10.5,5.8l-1.6,1.8l-1.6-1.8C26.5,13.9,23.6,10.7,18.2,10.7z"/>
</g>
</svg>
