<?xml version="1.0" encoding="utf-8"?>
<!-- Generator: Adobe Illustrator 20.1.0, SVG Export Plug-In . SVG Version: 6.00 Build 0)  -->
<svg version="1.1" id="Laag_1" xmlns="http://www.w3.org/2000/svg" xmlns:xlink="http://www.w3.org/1999/xlink" x="0px" y="0px"
	 viewBox="0 0 140.3 143.7" style="enable-background:new 0 0 140.3 143.7;" xml:space="preserve">
<style type="text/css">
	.st0{fill:#FFFFFF;}
	.st1{fill:#6D7070;}
</style>
<title>Tekengebied 1</title>
<circle class="st0" cx="69.8" cy="71.5" r="68.1"/>
<g id="Icon-Heart">
	<path id="Fill-18" class="st1" d="M69.8,104.8l-1.1-1c-26-21.1-33-28.5-33-40.7c0-9.9,8.1-18,18-18c8.3,0,13,4.7,16.1,8.3
		c3.2-3.5,7.9-8.3,16.2-8.3c9.9,0,18,8.1,18,18c0,12.1-7,19.5-33,40.7L69.8,104.8L69.8,104.8z M53.7,48.9c-7.9,0-14.2,6.4-14.3,14.3
		c0,10.4,6.6,17.3,30.4,36.8c23.8-19.6,30.4-26.4,30.4-36.8c0-7.9-6.4-14.2-14.2-14.3c-7.1,0-11,4.3-14,7.7L69.8,59l-2.1-2.4
		C64.7,53.2,60.8,48.9,53.7,48.9L53.7,48.9z"/>
</g>
</svg>
