<svg id="Laag_1" data-name="Laag 1" xmlns="http://www.w3.org/2000/svg" viewBox="0 0 200 200"><defs><style>.cls-1{fill:#fff;}.cls-2{fill:#0f9baf;}</style></defs><title>Tekengebied 1</title><circle class="cls-1" cx="100.38" cy="101.83" r="95.83"/><g id="Icon-Heart"><path id="Fill-18" class="cls-2" d="M100.38,148.79l-1.61-1.41C62.2,117.65,52.35,107.2,52.35,90.12A25.34,25.34,0,0,1,77.67,64.8c11.65,0,18.29,6.63,22.71,11.65,4.42-5,11.05-11.65,22.71-11.65A25.34,25.34,0,0,1,148.4,90.12c0,17.08-9.85,27.53-46.42,57.27l-1.61,1.41ZM77.67,70A20.15,20.15,0,0,0,57.58,90.12c0,14.67,9.24,24.31,42.8,51.84,33.56-27.53,42.8-37.17,42.8-51.84A20.15,20.15,0,0,0,123.09,70c-10,0-15.47,6-19.69,10.85l-3,3.42-3-3.42C93.14,76,87.72,70,77.67,70Z"/></g></svg>