<svg id="Laag_1" data-name="Laag 1" xmlns="http://www.w3.org/2000/svg" viewBox="0 0 140.33 143.67"><defs><style>.cls-1{fill:#fff;}.cls-2{fill:#0f9baf;}</style></defs><title>Tekengebied 1</title><circle class="cls-1" cx="69.83" cy="71.5" r="68.05"/><g id="Icon-Heart"><path id="Fill-18" class="cls-2" d="M69.83,104.84l-1.14-1c-26-21.12-33-28.54-33-40.66a18,18,0,0,1,18-18c8.28,0,13,4.71,16.12,8.28C73,49.91,77.68,45.2,86,45.2a18,18,0,0,1,18,18c0,12.13-7,19.55-33,40.66l-1.14,1ZM53.71,48.91A14.31,14.31,0,0,0,39.44,63.18C39.44,73.6,46,80.44,69.83,100c23.83-19.55,30.39-26.4,30.39-36.81A14.31,14.31,0,0,0,86,48.91c-7.13,0-11,4.28-14,7.7L69.83,59l-2.14-2.43c-3-3.42-6.85-7.7-14-7.7Z"/></g></svg>