<?xml version="1.0" encoding="utf-8"?>
<!-- Generator: Adobe Illustrator 21.0.2, SVG Export Plug-In . SVG Version: 6.00 Build 0)  -->
<svg version="1.1" id="Laag_1" xmlns="http://www.w3.org/2000/svg" xmlns:xlink="http://www.w3.org/1999/xlink" x="0px" y="0px"
	 viewBox="0 0 140.3 143.7" style="enable-background:new 0 0 140.3 143.7;" xml:space="preserve">
<style type="text/css">
	.st0{fill:#FFFFFF;}
	.st1{fill:#BFC4C4;}
	.st2{fill:none;stroke:#BFC4C4;stroke-width:5;stroke-miterlimit:10;}
</style>
<title>Tekengebied 1</title>
<circle class="st0" cx="69.8" cy="71.5" r="68.1"/>
<path class="st1" d="M99.3,58.2c1.2,2.1,0.9,2.4,1,4.9c0,10.4-6.6,17.3-30.4,36.8C46,80.4,39.4,73.6,39.4,63.2
	c0-7.9,6.4-14.2,14.3-14.3l0,0c7.2,0,11,4.3,14,7.7l0.7,0.8l4.1-0.4c2.9-3.3,6.8-8.1,13.5-8.1c1.5,0,4.8,0.8,6.4,2.1l3-3.2
	c-2.7-1.7-5.9-2.7-9.4-2.7c-8.3,0-13,4.7-16.2,8.3c-3.1-3.6-7.8-8.3-16.1-8.3c-9.9,0-18,8.1-18,18c0,12.1,7,19.5,33,40.7l1.1,1l0,0
	l1.1-1c26-21.1,33-28.5,33-40.7c0-3.6-0.2-4.9-2-7.8L99.3,58.2z"/>
<polyline class="st2" points="57.1,57.5 75.4,75.8 111.3,38.3 "/>
</svg>
