<svg id="Laag_1" data-name="Laag 1" xmlns="http://www.w3.org/2000/svg" viewBox="0 0 2390.93 720"><defs><style>.cls-1{fill:#fff;}.cls-1,.cls-3{stroke:#099baf;stroke-miterlimit:10;stroke-width:19px;}.cls-2{fill:#099baf;}.cls-3{fill:none;}</style></defs><title>Tekengebied 1</title><rect class="cls-1" x="131.43" y="23.46" width="571.46" height="571.46"/><rect class="cls-1" x="91.13" y="65.29" width="571.46" height="571.46"/><path class="cls-2" d="M174.21,352.17H151.79V265.9h22.43Z"/><path class="cls-2" d="M198.35,265.9h22.08L237.94,312l18.53-46.11h22.31l13,86.27H269.4l-6.29-49.66h-.23l-20.71,49.66h-8.92l-19.79-49.66h-.23L206,352.17H183.7Z"/><path class="cls-2" d="M301.31,265.9h31.81c24,0,43.82,18.88,43.82,43.13S357,352.17,333.12,352.17H301.31Zm22.43,67.28h5c13.39,0,24.83-7.32,24.83-24.14,0-15.45-10.18-24.14-24.6-24.14h-5.26Z"/><path class="cls-2" d="M186.11,469H163.68V401.68H145.15v-19h59.49v19H186.11Z"/><path class="cls-2" d="M243.54,401.68v14.42h25.28v19H243.54V450H270.2v19H221.11V382.69H270.2v19Z"/><path class="cls-2" d="M364.12,469H336.21L315,435.77h-.23V469H292.39V382.69h33.52c17,0,30,8.12,30,26.54,0,11.9-6.64,22.2-18.88,24.37Zm-49.31-47.6H317c7.32,0,15.56-1.37,15.56-10.75s-8.24-10.76-15.56-10.76h-2.17Z"/><path class="cls-2" d="M174.21,518.47v14.42H199.5v19H174.21v14.87h26.66v19H151.79V499.47h49.08v19Z"/><path class="cls-2" d="M270.43,521.67a23.6,23.6,0,0,0-14.88-5.72c-4.12,0-9.61,2.4-9.61,7.21,0,5,6.07,7,10,8.24l5.72,1.72c12,3.55,21.28,9.61,21.28,23.57,0,8.58-2.06,17.39-8.92,23.23S258.18,588,249.49,588a53.22,53.22,0,0,1-30.32-9.84l9.61-18.08C234.38,565,241,569,248.69,569c5.26,0,10.87-2.63,10.87-8.69,0-6.29-8.81-8.47-13.62-9.84-14.07-4-23.34-7.67-23.34-24.37,0-17.51,12.47-28.95,29.75-28.95a59,59,0,0,1,27,7.09Z"/><path class="cls-2" d="M336.2,585.74H313.78V518.47H295.24v-19h59.49v19H336.2Z"/><rect class="cls-3" x="46.18" y="105.94" width="571.46" height="571.46"/><path class="cls-2" d="M860.2,466H812.71V283.34H860.2Z"/><path class="cls-2" d="M929,283.34h46.76L1012.83,381l39.25-97.64h47.25L1127,466h-47.49l-13.33-105.15h-.48L1021.8,466h-18.9L961,360.88h-.48L945.24,466H898Z"/><path class="cls-2" d="M1164.73,283.34h67.35c50.88,0,92.8,40,92.8,91.34S1282.73,466,1232.09,466h-67.35Zm47.49,142.47h10.66c28.35,0,52.58-15.51,52.58-51.12,0-32.71-21.57-51.12-52.09-51.12h-11.14Z"/><path class="cls-2" d="M1437.3,466h-47.49V323.56h-39.25V283.34h126v40.22H1437.3Z"/><path class="cls-2" d="M1558.92,323.56v30.53h53.54v40.22h-53.54v31.5h56.45V466H1511.43V283.34h103.94v40.22Z"/><path class="cls-2" d="M1814.28,466h-59.12l-44.83-70.26h-.48V466h-47.49V283.34h71c36.1,0,63.48,17.2,63.48,56.21,0,25.2-14,47-40,51.61Zm-104.42-100.8h4.6c15.51,0,33-2.91,33-22.77s-17.45-22.77-33-22.77h-4.6Z"/><path class="cls-2" d="M1892.29,323.56v30.53h53.54v40.22h-53.54v31.5h56.45V466H1844.8V283.34h103.94v40.22Z"/><path class="cls-2" d="M2096,330.34c-8.73-7.27-19.87-12.11-31.5-12.11-8.72,0-20.35,5.09-20.35,15.27,0,10.66,12.84,14.78,21.08,17.44l12.11,3.63c25.44,7.51,45.07,20.35,45.07,49.91,0,18.17-4.36,36.83-18.9,49.18-14.3,12.12-33.44,17.21-51.85,17.21-23,0-45.55-7.76-64.21-20.84l20.35-38.28c11.87,10.42,25.93,18.9,42.16,18.9,11.15,0,23-5.57,23-18.41,0-13.33-18.66-17.93-28.84-20.84-29.8-8.48-49.43-16.23-49.43-51.61,0-37.07,26.41-61.3,63-61.3,18.41,0,40.95,5.81,57.18,15Z"/><path class="cls-2" d="M2235.35,466h-47.49V323.56H2148.6V283.34h126v40.22h-39.25Z"/><rect class="cls-2" x="1468.56" y="613.99" width="163.19" height="23.47"/><rect class="cls-2" x="1478.85" y="117.75" width="163.19" height="23.47"/></svg>