<svg id="Laag_1" data-name="Laag 1" xmlns="http://www.w3.org/2000/svg" viewBox="0 0 500 500"><defs><style>.cls-1{fill:none;stroke:#fff;stroke-miterlimit:10;stroke-width:14px;}.cls-2{fill:#fff;}</style></defs><title>Tekengebied 1</title><polyline class="cls-1" points="80.82 48.33 80.82 23.58 477.81 23.58 477.81 420.57 453.67 420.57"/><polyline class="cls-1" points="52.82 77 52.82 52.64 449.81 52.64 449.81 449.63 421 449.63"/><path class="cls-2" d="M110.54,251.93H95V192h15.58Z"/><path class="cls-2" d="M127.31,192h15.34l12.16,32,12.88-32h15.5l9.06,59.93H176.67l-4.37-34.5h-.16l-14.39,34.5h-6.2l-13.75-34.5h-.16l-5,34.5h-15.5Z"/><path class="cls-2" d="M198.83,192h22.1a30,30,0,1,1,0,59.93h-22.1Zm15.58,46.74h3.5c9.3,0,17.25-5.09,17.25-16.77,0-10.73-7.07-16.77-17.09-16.77h-3.66Z"/><path class="cls-2" d="M118.81,333.06H103.23V286.32H90.35V273.13h41.33v13.19H118.81Z"/><path class="cls-2" d="M158.7,286.32v10h17.56v13.19H158.7v10.33h18.52v13.19h-34.1V273.13h34.1v13.19Z"/><path class="cls-2" d="M242.47,333.06H223.08L208.37,310h-.16v23.05H192.64V273.13h23.29c11.84,0,20.82,5.64,20.82,18.44,0,8.27-4.61,15.42-13.11,16.93ZM208.21,300h1.51c5.09,0,10.81-1,10.81-7.47s-5.72-7.47-10.81-7.47h-1.51Z"/><path class="cls-2" d="M110.54,367.45v10h17.56v13.19H110.54V401h18.52v13.19H95V354.26h34.1v13.19Z"/><path class="cls-2" d="M177.38,369.68a16.39,16.39,0,0,0-10.33-4c-2.86,0-6.68,1.67-6.68,5,0,3.5,4.21,4.85,6.92,5.72l4,1.19C179.6,380.09,186,384.31,186,394c0,6-1.43,12.08-6.2,16.13s-11,5.64-17,5.64a37,37,0,0,1-21.06-6.84l6.68-12.56c3.89,3.42,8.51,6.2,13.83,6.2,3.66,0,7.55-1.83,7.55-6,0-4.37-6.12-5.88-9.46-6.84-9.78-2.78-16.21-5.33-16.21-16.93,0-12.16,8.66-20.11,20.67-20.11a41,41,0,0,1,18.76,4.93Z"/><path class="cls-2" d="M223.08,414.19H207.5V367.45H194.62V354.26H236v13.19H223.08Z"/><rect class="cls-1" x="21.6" y="80.88" width="396.99" height="396.99"/><polyline class="cls-1" points="53 87 53 450 411 450"/></svg>