<svg id="Laag_1" data-name="Laag 1" xmlns="http://www.w3.org/2000/svg" viewBox="0 0 720 720"><defs><style>.cls-1{fill:#fff;}.cls-1,.cls-3{stroke:#099baf;stroke-miterlimit:10;stroke-width:12px;}.cls-2{fill:#099baf;}.cls-3{fill:none;}</style></defs><title>Tekengebied 1</title><rect class="cls-1" x="124.74" y="50.59" width="545.77" height="545.77"/><rect class="cls-1" x="89.1" y="84.81" width="545.77" height="545.77"/><path class="cls-2" d="M174.21,344.17H151.79V257.9h22.43Z"/><path class="cls-2" d="M198.35,257.9h22.08L237.94,304l18.53-46.11h22.31l13,86.27H269.4l-6.29-49.66h-.23l-20.71,49.66h-8.92l-19.79-49.66h-.23L206,344.17H183.7Z"/><path class="cls-2" d="M301.31,257.9h31.81c24,0,43.82,18.88,43.82,43.13S357,344.17,333.12,344.17H301.31Zm22.43,67.28h5c13.39,0,24.83-7.32,24.83-24.14,0-15.45-10.18-24.14-24.6-24.14h-5.26Z"/><path class="cls-2" d="M186.11,461H163.68V393.68H145.15v-19h59.49v19H186.11Z"/><path class="cls-2" d="M243.54,393.68v14.42h25.28v19H243.54V442H270.2v19H221.11V374.69H270.2v19Z"/><path class="cls-2" d="M364.12,461H336.21L315,427.77h-.23V461H292.39V374.69h33.52c17,0,30,8.12,30,26.54,0,11.9-6.64,22.2-18.88,24.37Zm-49.31-47.6H317c7.32,0,15.56-1.37,15.56-10.75s-8.24-10.76-15.56-10.76h-2.17Z"/><path class="cls-2" d="M174.21,510.47v14.42H199.5v19H174.21v14.87h26.66v19H151.79V491.47h49.08v19Z"/><path class="cls-2" d="M270.43,513.67a23.6,23.6,0,0,0-14.88-5.72c-4.12,0-9.61,2.4-9.61,7.21,0,5,6.07,7,10,8.24l5.72,1.72c12,3.55,21.28,9.61,21.28,23.57,0,8.58-2.06,17.39-8.92,23.23S258.18,580,249.49,580a53.22,53.22,0,0,1-30.32-9.84l9.61-18.08C234.38,557,241,561,248.69,561c5.26,0,10.87-2.63,10.87-8.69,0-6.29-8.81-8.47-13.62-9.84-14.07-4-23.34-7.67-23.34-24.37,0-17.51,12.47-28.95,29.75-28.95a59,59,0,0,1,27,7.09Z"/><path class="cls-2" d="M336.2,577.74H313.78V510.47H295.24v-19h59.49v19H336.2Z"/><rect class="cls-3" x="46.18" y="123.64" width="545.77" height="545.77"/></svg>